<svg width="25" height="25" viewBox="0 0 25 25" fill="none"
    xmlns="http://www.w3.org/2000/svg">
    <path d="M6.75 13.5H11.5V18.25C11.5 18.3875 11.6125 18.5 11.75 18.5H13.25C13.3875 18.5 13.5 18.3875 13.5 18.25V13.5H18.25C18.3875 13.5 18.5 13.3875 18.5 13.25V11.75C18.5 11.6125 18.3875 11.5 18.25 11.5H13.5V6.75C13.5 6.6125 13.3875 6.5 13.25 6.5H11.75C11.6125 6.5 11.5 6.6125 11.5 6.75V11.5H6.75C6.6125 11.5 6.5 11.6125 6.5 11.75V13.25C6.5 13.3875 6.6125 13.5 6.75 13.5Z" fill="#38485A"/>
    <path d="M24 0H1C0.446875 0 0 0.446875 0 1V24C0 24.5531 0.446875 25 1 25H24C24.5531 25 25 24.5531 25 24V1C25 0.446875 24.5531 0 24 0ZM22.75 22.75H2.25V2.25H22.75V22.75Z" fill="#38485A"/>
</svg>
