<svg t="1614676493364" class="icon" viewBox="0 0 1024 1024" version="1.1" xmlns="http://www.w3.org/2000/svg" p-id="2036" width="200" height="200"><path d="M512 1024C229.239467 1024 0 794.760533 0 512 0 229.239467 229.239467 0 512 0c282.760533 0 512 229.239467 512 512 0 282.760533-229.239467 512-512 512z m37.614933-542.037333h163.4304c20.753067 0 37.751467-16.1792 37.751467-36.181334 0-19.899733-16.861867-36.181333-37.751467-36.181333H310.818133C290.065067 409.6 273.066667 425.745067 273.066667 445.781333c0 19.8656 16.861867 36.181333 37.751466 36.181334h163.4304v120.354133H310.818133c-20.753067 0-37.751467 16.145067-37.751466 36.181333 0 20.002133 16.861867 36.181333 37.751466 36.181334h163.4304v108.3392c0 19.899733 16.861867 36.181333 37.751467 36.181333 20.8896 0 37.751467-16.145067 37.751467-36.181333v-108.373334h163.4304c20.753067 0 37.751467-16.145067 37.751466-36.181333 0-20.002133-16.861867-36.1472-37.751466-36.1472h-163.566934V481.962667zM409.6 204.8c-18.773333 0-34.133333 15.2576-34.133333 34.133333v68.266667c0 18.773333 15.223467 34.133333 34.133333 34.133333 18.773333 0 34.133333-15.2576 34.133333-34.133333V238.933333c0-18.875733-15.2576-34.133333-34.133333-34.133333z m204.8 0c-18.773333 0-34.133333 15.2576-34.133333 34.133333v68.266667c0 18.773333 15.223467 34.133333 34.133333 34.133333 18.773333 0 34.133333-15.2576 34.133333-34.133333V238.933333c0-18.875733-15.36-34.133333-34.133333-34.133333z" p-id="2037" fill="#187A99"></path></svg>