<svg t="1614515205396" class="icon" viewBox="0 0 1024 1024" version="1.1" xmlns="http://www.w3.org/2000/svg" p-id="19143" width="200" height="200"><path d="M526.2 77.6C286.3 77.6 91.8 272.1 91.8 512c0 239.9 194.5 434.4 434.4 434.4 239.9 0 434.4-194.5 434.4-434.4 0-239.9-194.5-434.4-434.4-434.4zM359.8 653.1c0 6.4-5.8 11.6-13 11.6h-29.5v121.5c0 4.1-3.8 7.5-8.4 7.5h-12.6c-4.6 0-8.4-3.4-8.4-7.5V664.7h-29.5c-7.1 0-13-5.2-13-11.6V346.7c0-6.4 5.8-11.6 13-11.6H288V264c0-4.1 3.8-7.5 8.4-7.5H309c4.6 0 8.4 3.4 8.4 7.5v71.1h29.5c7.1 0 13 5.2 13 11.6v306.4z m221.4 84.6c0 6.9-5.6 12.5-12.5 12.5H540v121.3c0 4.6-3.8 8.4-8.4 8.4h-15.1c-4.6 0-8.4-3.8-8.4-8.4V750.2h-28.7c-6.9 0-12.5-5.6-12.5-12.5V422c0-6.9 5.6-12.5 12.5-12.5h28.7V333c0-4.6 3.8-8.4 8.4-8.4h15.1c4.6 0 8.4 3.8 8.4 8.4v76.5h28.7c6.9 0 12.5 5.6 12.5 12.5v315.7z m220.2-133.4c0 6.2-5.5 11.3-12.2 11.3h-28.9v110.1c0 4.2-3.7 7.7-8.3 7.7h-15.5c-4.5 0-8.3-3.5-8.3-7.7v-110h-28.9c-6.7 0-12.2-5.1-12.2-11.3V322.7c0-6.2 5.5-11.3 12.2-11.3h28.9V245c0-4.2 3.7-7.7 8.3-7.7H752c4.5 0 8.3 3.5 8.3 7.7v66.3h28.9c6.7 0 12.2 5.1 12.2 11.3v281.7z" fill="#187A99" p-id="19144"></path></svg>