<svg width="18" height="15" viewBox="0 0 18 15" fill="none"
    xmlns="http://www.w3.org/2000/svg">
    <path fill-rule="evenodd" clip-rule="evenodd" d="M0 1.25C0 0.918479 0.131696 0.600537 0.366116 0.366117C0.600537 0.131696 0.918479 0 1.25 0H16.25C16.5815 0 16.8995 0.131696 17.1339 0.366117C17.3683 0.600537 17.5 0.918479 17.5 1.25C17.5 1.58152 17.3683 1.89946 17.1339 2.13388C16.8995 2.3683 16.5815 2.5 16.25 2.5H1.25C0.918479 2.5 0.600537 2.3683 0.366116 2.13388C0.131696 1.89946 0 1.58152 0 1.25ZM0 7.5C0 7.16848 0.131696 6.85054 0.366116 6.61612C0.600537 6.3817 0.918479 6.25 1.25 6.25H16.25C16.5815 6.25 16.8995 6.3817 17.1339 6.61612C17.3683 6.85054 17.5 7.16848 17.5 7.5C17.5 7.83152 17.3683 8.14946 17.1339 8.38388C16.8995 8.6183 16.5815 8.75 16.25 8.75H1.25C0.918479 8.75 0.600537 8.6183 0.366116 8.38388C0.131696 8.14946 0 7.83152 0 7.5ZM0 13.75C0 13.4185 0.131696 13.1005 0.366116 12.8661C0.600537 12.6317 0.918479 12.5 1.25 12.5H8.75C9.08152 12.5 9.39946 12.6317 9.63388 12.8661C9.8683 13.1005 10 13.4185 10 13.75C10 14.0815 9.8683 14.3995 9.63388 14.6339C9.39946 14.8683 9.08152 15 8.75 15H1.25C0.918479 15 0.600537 14.8683 0.366116 14.6339C0.131696 14.3995 0 14.0815 0 13.75Z" fill="#FEFEFE"/>
</svg>
