<svg t="1614515130944" class="icon" viewBox="0 0 1024 1024" version="1.1" xmlns="http://www.w3.org/2000/svg" p-id="16356" width="200" height="200"><path d="M650.721882 329.788235a361.020235 361.020235 0 0 0-125.771294-29.545411c-22.016-1.174588-51.651765 1.626353-88.064 8.252235-9.878588 1.807059-16.564706 11.745882-14.938353 22.196706 1.656471 10.450824 10.992941 17.468235 20.87153 15.661176 33.310118-6.083765 61.018353-8.734118 80.112941-7.740235 39.634824 2.078118 77.914353 11.053176 113.814588 26.684235a17.227294 17.227294 0 0 0 5.993412 1.41553 18.251294 18.251294 0 0 0 17.739294-11.896471c3.855059-9.788235-0.512-21.022118-9.758118-25.057882zM301.176471 391.529412c0 16.624941 6.746353 30.117647 15.058823 30.117647s15.058824-13.492706 15.058824-30.117647-6.746353-30.117647-15.058824-30.117647-15.058824 13.492706-15.058823 30.117647z" fill="#187A99" p-id="16357"></path><path d="M496.941176 0C222.479059 0 0 222.479059 0 496.941176S222.479059 993.882353 496.941176 993.882353 993.882353 771.403294 993.882353 496.941176 771.403294 0 496.941176 0z m377.193412 630.753882c-11.595294-0.752941-33.882353-4.547765-58.729412-21.62447-7.439059 26.593882-19.275294 53.579294-36.111058 80.112941-9.728 15.36-54.332235 87.943529-77.613177 87.943529h-92.28047a14.546824 14.546824 0 0 1-14.787765-16.444235l1.445647-22.648471c0.060235-8.944941-7.318588-14.998588-16.444235-13.462588 0 0-39.755294 6.776471-69.722353 6.776471-19.817412 0-42.646588-2.529882-42.646589-2.529883a19.335529 19.335529 0 0 0-20.48 14.034824l-5.481411 18.552471a25.389176 25.389176 0 0 1-22.196706 15.751529h-75.474824a15.299765 15.299765 0 0 1-15.450353-16.564706l-0.993882-61.168941c-1.024-8.914824-4.939294-18.040471-8.734118-20.299294l-3.373176-2.168471c-51.109647-32.858353-67.132235-84.178824-131.222588-84.329412-15.781647-0.030118-22.648471-16.986353-22.648471-16.986352a102.4 102.4 0 0 1-6.294588-31.442824v-65.837176c0-8.944941 3.011765-23.100235 6.324706-31.472942 0 0 7.017412-16.956235 22.799059-16.956235 46.471529 0 41.743059-30.358588 66.68047-61.952 11.655529-14.757647 30.117647-30.117647 30.117647-30.117647a18.010353 18.010353 0 0 0 3.072-23.913412s-42.044235-58.187294-54.211765-72.944941c-2.921412-3.523765-1.505882-6.234353 3.102118-5.963294 58.789647 3.764706 116.284235 42.556235 116.284235 42.556235 7.589647 5.12 21.052235 7.168 29.906824 4.577883 0 0 81.317647-23.913412 130.921412-23.913412 148.570353 0 271.119059 91.949176 305.543529 212.389647 8.252235 28.912941 11.444706 59.512471 8.673882 90.834823 11.414588 21.473882 31.412706 54.753882 50.718118 65.957647 4.005647 2.288941 3.915294 3.584-0.692706 3.252706z" fill="#187A99" p-id="16358"></path></svg>