<svg width="25" height="21" viewBox="0 0 25 21" fill="none"
    xmlns="http://www.w3.org/2000/svg">
    <path d="M0 16.8H8.40134V19.2H0V16.8ZM0 8.4H10.8017V10.8H0V8.4ZM0 0H24.0038V2.4H0V0ZM22.4124 10.83L23.7998 10.3608L25 12.4392L23.9006 13.4052C24.039 14.0612 24.039 14.7388 23.9006 15.3948L25 16.3608L23.7998 18.4392L22.4124 17.97C21.9203 18.414 21.3346 18.756 20.6901 18.966L20.4033 20.4H18.0029L17.7148 18.9648C17.0778 18.7567 16.4916 18.4174 15.9938 17.9688L14.6063 18.4392L13.4061 16.3608L14.5055 15.3948C14.3671 14.7388 14.3671 14.0612 14.5055 13.4052L13.4061 12.4392L14.6063 10.3608L15.9938 10.83C16.4858 10.386 17.0715 10.044 17.716 9.834L18.0029 8.4H20.4033L20.6913 9.8352C21.3346 10.044 21.9203 10.3872 22.4124 10.8312V10.83ZM19.2031 16.8C19.8397 16.8 20.4502 16.5471 20.9004 16.0971C21.3506 15.647 21.6035 15.0365 21.6035 14.4C21.6035 13.7635 21.3506 13.153 20.9004 12.7029C20.4502 12.2529 19.8397 12 19.2031 12C18.5665 12 17.9559 12.2529 17.5057 12.7029C17.0556 13.153 16.8027 13.7635 16.8027 14.4C16.8027 15.0365 17.0556 15.647 17.5057 16.0971C17.9559 16.5471 18.5665 16.8 19.2031 16.8Z" fill="#38485A"/>
</svg>
