<svg t="1614740599531" class="icon" viewBox="0 0 1024 1024" version="1.1" xmlns="http://www.w3.org/2000/svg" p-id="12817" width="200" height="200"><path d="M512 16c-273.5 0-496 222.5-496 496s222.5 496 496 496 496-222.5 496-496S785.5 16 512 16zM285 479.4c10.8-13.2 30.2-15.2 43.3-4.4l30.6 25.1 63.7-84.4c5.1-6.8 12.7-11.1 21.1-12.1 8.4-0.9 16.8 1.6 23.3 7.1l63.4 53.7 83.4-107.4-24-22.1c-15.5-14.3-11.2-28.8 9.6-32.1l119.9-19.2c20.8-3.3 26.7 7.1 13 23.3l-25.4 30.1c-0.8 1.5-1.6 2.9-2.7 4.3l-145 186.6c-5.1 6.6-12.8 10.9-21.1 11.7-8.3 1-16.6-1.7-23-7.1L452 479.1l-63.4 84c-5.1 6.7-12.6 11-20.9 12-1.2 0.1-2.4 0.2-3.6 0.2-7.1 0-14-2.5-19.5-7l-55.3-45.5C276.1 512.1 274.2 492.6 285 479.4zM745.6 722.4c0 10.3-8.3 18.7-18.5 18.7l-426.6-0.3c-10.2 0-18.5-8.4-18.6-18.7l-0.4-122.5c0-19.8 9.9-30.2 20.2-20.2l57.6 45.8c7.7 6.7 19.4 15.8 25.8 7.8l66-80.9c6.5-7.9 18.2-19.1 26-12.5L534 589.4c7.8 6.6 23.9 18.2 30.3 10.1l141.4-171.9c19.1-22 40.4-16.8 40.4 10.1C746 457.7 745.6 722.4 745.6 722.4z" p-id="12818" fill="#187A99"></path></svg>